<svg xmlns="http://www.w3.org/2000/svg" viewBox="0 0 1600 1000" preserveAspectRatio="xMidYMid slice"><defs><pattern id="grid" width="80" height="80" patternUnits="userSpaceOnUse"><path d="M80 0H0V80" fill="none" stroke="#637296" stroke-opacity=".1"/></pattern><linearGradient id="vol" x2="0" y2="1"><stop stop-color="#8c57ef" stop-opacity=".4"/><stop offset="1" stop-color="#4b3a92" stop-opacity=".05"/></linearGradient></defs><rect width="1600" height="1000" fill="#080b16"/><rect width="1600" height="1000" fill="url(#grid)"/><path d="M5 485.0V602.0" stroke="#9360ef" stroke-width="1.4"/><rect x="0" y="523.0" width="10" height="27.0" rx="1" fill="#9360ef"/><rect x="0" y="816" width="10" height="184" fill="url(#vol)"/><path d="M22 494.0V580.0" stroke="#485b80" stroke-width="1.4"/><rect x="17" y="523.0" width="10" height="10" rx="1" fill="#485b80"/><rect x="17" y="888" width="10" height="112" fill="url(#vol)"/><path d="M39 496.73143192249245V640.351656346945" stroke="#485b80" stroke-width="1.4"/><rect x="34" y="529.7314319224924" width="10" height="68.62022442445254" rx="1" fill="#485b80"/><rect x="34" y="808" width="10" height="192" fill="url(#vol)"/><path d="M56 578.7504686683883V629.7504686683883" stroke="#9360ef" stroke-width="1.4"/><rect x="51" y="594.7504686683883" width="10" height="10" rx="1" fill="#9360ef"/><rect x="51" y="838" width="10" height="162" fill="url(#vol)"/><path d="M73 555.7504686683883V644.7504686683883" stroke="#485b80" stroke-width="1.4"/><rect x="68" y="594.7504686683883" width="10" height="10" rx="1" fill="#485b80"/><rect x="68" y="943" width="10" height="57" fill="url(#vol)"/><path d="M90 553.8196610236878V657.4539981332642" stroke="#485b80" stroke-width="1.4"/><rect x="85" y="602.8196610236878" width="10" height="23.63433710957645" rx="1" fill="#485b80"/><rect x="85" y="805" width="10" height="195" fill="url(#vol)"/><path d="M107 538.552166335416V650.4539981332642" stroke="#9360ef" stroke-width="1.4"/><rect x="102" y="589.552166335416" width="10" height="36.90183179784822" rx="1" fill="#9360ef"/><rect x="102" y="935" width="10" height="65" fill="url(#vol)"/><path d="M124 539.552166335416V652.0176872546513" stroke="#485b80" stroke-width="1.4"/><rect x="119" y="589.552166335416" width="10" height="38.465520919235246" rx="1" fill="#485b80"/><rect x="119" y="820" width="10" height="180" fill="url(#vol)"/><path d="M141 581.0176872546513V666.7597878643717" stroke="#485b80" stroke-width="1.4"/><rect x="136" y="628.0176872546513" width="10" height="12.74210060972041" rx="1" fill="#485b80"/><rect x="136" y="820" width="10" height="180" fill="url(#vol)"/><path d="M158 602.7597878643717V701.7597878643717" stroke="#485b80" stroke-width="1.4"/><rect x="153" y="640.7597878643717" width="10" height="10" rx="1" fill="#485b80"/><rect x="153" y="838" width="10" height="162" fill="url(#vol)"/><path d="M175 595.7440156226186V679.6942190974962" stroke="#9360ef" stroke-width="1.4"/><rect x="170" y="625.7440156226186" width="10" height="21.95020347487764" rx="1" fill="#9360ef"/><rect x="170" y="869" width="10" height="131" fill="url(#vol)"/><path d="M192 584.7440156226186V678.7440156226186" stroke="#485b80" stroke-width="1.4"/><rect x="187" y="625.7440156226186" width="10" height="10" rx="1" fill="#485b80"/><rect x="187" y="967" width="10" height="33" fill="url(#vol)"/><path d="M209 585.8401899338741V678.9223544950648" stroke="#485b80" stroke-width="1.4"/><rect x="204" y="628.8401899338741" width="10" height="34.08216456119078" rx="1" fill="#485b80"/><rect x="204" y="871" width="10" height="129" fill="url(#vol)"/><path d="M226 558.9392663274132V698.9223544950648" stroke="#9360ef" stroke-width="1.4"/><rect x="221" y="612.9392663274132" width="10" height="49.98308816765166" rx="1" fill="#9360ef"/><rect x="221" y="858" width="10" height="142" fill="url(#vol)"/><path d="M243 568.8492891297358V672.8492891297358" stroke="#9360ef" stroke-width="1.4"/><rect x="238" y="612.8492891297358" width="10" height="10" rx="1" fill="#9360ef"/><rect x="238" y="824" width="10" height="176" fill="url(#vol)"/><path d="M260 575.6207687635384V634.6207687635384" stroke="#9360ef" stroke-width="1.4"/><rect x="255" y="609.6207687635384" width="10" height="10" rx="1" fill="#9360ef"/><rect x="255" y="894" width="10" height="106" fill="url(#vol)"/><path d="M277 571.6207687635384V688.2323187168257" stroke="#485b80" stroke-width="1.4"/><rect x="272" y="609.6207687635384" width="10" height="40.611549953287295" rx="1" fill="#485b80"/><rect x="272" y="805" width="10" height="195" fill="url(#vol)"/><path d="M294 620.6730129722545V695.2323187168257" stroke="#9360ef" stroke-width="1.4"/><rect x="289" y="636.6730129722545" width="10" height="13.559305744571247" rx="1" fill="#9360ef"/><rect x="289" y="930" width="10" height="70" fill="url(#vol)"/><path d="M311 598.9424845403006V678.6730129722545" stroke="#9360ef" stroke-width="1.4"/><rect x="306" y="616.9424845403006" width="10" height="19.73052843195387" rx="1" fill="#9360ef"/><rect x="306" y="899" width="10" height="101" fill="url(#vol)"/><path d="M328 600.0509287688499V656.0509287688499" stroke="#9360ef" stroke-width="1.4"/><rect x="323" y="615.0509287688499" width="10" height="10" rx="1" fill="#9360ef"/><rect x="323" y="864" width="10" height="136" fill="url(#vol)"/><path d="M345 591.0509287688499V676.0509287688499" stroke="#485b80" stroke-width="1.4"/><rect x="340" y="615.0509287688499" width="10" height="10" rx="1" fill="#485b80"/><rect x="340" y="961" width="10" height="39" fill="url(#vol)"/><path d="M362 578.877682198791V652.0190113993639" stroke="#9360ef" stroke-width="1.4"/><rect x="357" y="595.877682198791" width="10" height="24.14132920057284" rx="1" fill="#9360ef"/><rect x="357" y="890" width="10" height="110" fill="url(#vol)"/><path d="M379 571.877682198791V656.877682198791" stroke="#485b80" stroke-width="1.4"/><rect x="374" y="595.877682198791" width="10" height="10" rx="1" fill="#485b80"/><rect x="374" y="907" width="10" height="93" fill="url(#vol)"/><path d="M396 518.440242603332V649.6678958479296" stroke="#9360ef" stroke-width="1.4"/><rect x="391" y="569.440242603332" width="10" height="30.227653244597604" rx="1" fill="#9360ef"/><rect x="391" y="925" width="10" height="75" fill="url(#vol)"/><path d="M413 536.2544920635198V594.440242603332" stroke="#9360ef" stroke-width="1.4"/><rect x="408" y="557.2544920635198" width="10" height="12.185750539812148" rx="1" fill="#9360ef"/><rect x="408" y="856" width="10" height="144" fill="url(#vol)"/><path d="M430 537.2544920635198V610.2544920635198" stroke="#485b80" stroke-width="1.4"/><rect x="425" y="557.2544920635198" width="10" height="10" rx="1" fill="#485b80"/><rect x="425" y="927" width="10" height="73" fill="url(#vol)"/><path d="M447 540.1790541539253V632.2903621915096" stroke="#485b80" stroke-width="1.4"/><rect x="442" y="565.1790541539253" width="10" height="14.111308037584308" rx="1" fill="#485b80"/><rect x="442" y="863" width="10" height="137" fill="url(#vol)"/><path d="M464 538.2903621915096V619.2903621915096" stroke="#485b80" stroke-width="1.4"/><rect x="459" y="579.2903621915096" width="10" height="10" rx="1" fill="#485b80"/><rect x="459" y="868" width="10" height="132" fill="url(#vol)"/><path d="M481 501.41486444094494V600.6721835927167" stroke="#9360ef" stroke-width="1.4"/><rect x="476" y="522.4148644409449" width="10" height="60.25731915177175" rx="1" fill="#9360ef"/><rect x="476" y="911" width="10" height="89" fill="url(#vol)"/><path d="M498 493.61451472618785V538.4148644409449" stroke="#9360ef" stroke-width="1.4"/><rect x="493" y="509.61451472618785" width="10" height="12.80034971475709" rx="1" fill="#9360ef"/><rect x="493" y="857" width="10" height="143" fill="url(#vol)"/><path d="M515 476.3721416045307V560.6145147261878" stroke="#9360ef" stroke-width="1.4"/><rect x="510" y="492.3721416045307" width="10" height="17.242373121657124" rx="1" fill="#9360ef"/><rect x="510" y="806" width="10" height="194" fill="url(#vol)"/><path d="M532 437.3721416045307V555.3721416045307" stroke="#485b80" stroke-width="1.4"/><rect x="527" y="492.3721416045307" width="10" height="10" rx="1" fill="#485b80"/><rect x="527" y="922" width="10" height="78" fill="url(#vol)"/><path d="M549 457.9843382211582V547.9843382211582" stroke="#9360ef" stroke-width="1.4"/><rect x="544" y="492.9843382211582" width="10" height="10" rx="1" fill="#9360ef"/><rect x="544" y="869" width="10" height="131" fill="url(#vol)"/><path d="M566 431.05703875838407V532.9843382211582" stroke="#9360ef" stroke-width="1.4"/><rect x="561" y="481.05703875838407" width="10" height="11.927299462774158" rx="1" fill="#9360ef"/><rect x="561" y="923" width="10" height="77" fill="url(#vol)"/><path d="M583 431.12201033626104V519.0570387583841" stroke="#9360ef" stroke-width="1.4"/><rect x="578" y="467.12201033626104" width="10" height="13.935028422123025" rx="1" fill="#9360ef"/><rect x="578" y="869" width="10" height="131" fill="url(#vol)"/><path d="M600 388.29049288683393V518.122010336261" stroke="#9360ef" stroke-width="1.4"/><rect x="595" y="429.29049288683393" width="10" height="37.83151744942711" rx="1" fill="#9360ef"/><rect x="595" y="970" width="10" height="30" fill="url(#vol)"/><path d="M617 381.29049288683393V491.67279285799384" stroke="#485b80" stroke-width="1.4"/><rect x="612" y="429.29049288683393" width="10" height="20.38229997115991" rx="1" fill="#485b80"/><rect x="612" y="939" width="10" height="61" fill="url(#vol)"/><path d="M634 410.37728844627156V489.67279285799384" stroke="#9360ef" stroke-width="1.4"/><rect x="629" y="429.37728844627156" width="10" height="20.295504411722277" rx="1" fill="#9360ef"/><rect x="629" y="968" width="10" height="32" fill="url(#vol)"/><path d="M651 338.509452219015V476.37728844627156" stroke="#9360ef" stroke-width="1.4"/><rect x="646" y="370.509452219015" width="10" height="58.86783622725659" rx="1" fill="#9360ef"/><rect x="646" y="959" width="10" height="41" fill="url(#vol)"/><path d="M668 292.1708999401541V389.509452219015" stroke="#9360ef" stroke-width="1.4"/><rect x="663" y="347.1708999401541" width="10" height="23.338552278860902" rx="1" fill="#9360ef"/><rect x="663" y="801" width="10" height="199" fill="url(#vol)"/><path d="M685 312.45847417744653V391.45847417744653" stroke="#9360ef" stroke-width="1.4"/><rect x="680" y="338.45847417744653" width="10" height="10" rx="1" fill="#9360ef"/><rect x="680" y="809" width="10" height="191" fill="url(#vol)"/><path d="M702 323.45847417744653V374.4633709554296" stroke="#485b80" stroke-width="1.4"/><rect x="697" y="338.45847417744653" width="10" height="10.004896777983049" rx="1" fill="#485b80"/><rect x="697" y="962" width="10" height="38" fill="url(#vol)"/><path d="M719 322.4633709554296V388.4633709554296" stroke="#485b80" stroke-width="1.4"/><rect x="714" y="348.4633709554296" width="10" height="10" rx="1" fill="#485b80"/><rect x="714" y="870" width="10" height="130" fill="url(#vol)"/><path d="M736 286.9568073022023V406.2703173301106" stroke="#9360ef" stroke-width="1.4"/><rect x="731" y="302.9568073022023" width="10" height="53.31351002790825" rx="1" fill="#9360ef"/><rect x="731" y="960" width="10" height="40" fill="url(#vol)"/><path d="M753 273.9568073022023V376.59240295960376" stroke="#485b80" stroke-width="1.4"/><rect x="748" y="302.9568073022023" width="10" height="39.63559565740144" rx="1" fill="#485b80"/><rect x="748" y="896" width="10" height="104" fill="url(#vol)"/><path d="M770 316.59240295960376V383.59240295960376" stroke="#485b80" stroke-width="1.4"/><rect x="765" y="342.59240295960376" width="10" height="10" rx="1" fill="#485b80"/><rect x="765" y="959" width="10" height="41" fill="url(#vol)"/><path d="M787 308.94581335193385V370.94581335193385" stroke="#9360ef" stroke-width="1.4"/><rect x="782" y="336.94581335193385" width="10" height="10" rx="1" fill="#9360ef"/><rect x="782" y="807" width="10" height="193" fill="url(#vol)"/><path d="M804 248.75783767262857V380.94581335193385" stroke="#9360ef" stroke-width="1.4"/><rect x="799" y="271.75783767262857" width="10" height="65.18797567930528" rx="1" fill="#9360ef"/><rect x="799" y="812" width="10" height="188" fill="url(#vol)"/><path d="M821 221.75783767262857V309.706537247913" stroke="#485b80" stroke-width="1.4"/><rect x="816" y="271.75783767262857" width="10" height="15.948699575284422" rx="1" fill="#485b80"/><rect x="816" y="895" width="10" height="105" fill="url(#vol)"/><path d="M838 255.706537247913V359.8140184307956" stroke="#485b80" stroke-width="1.4"/><rect x="833" y="287.706537247913" width="10" height="29.107481182882623" rx="1" fill="#485b80"/><rect x="833" y="888" width="10" height="112" fill="url(#vol)"/><path d="M855 259.0919374332009V353.8140184307956" stroke="#9360ef" stroke-width="1.4"/><rect x="850" y="281.0919374332009" width="10" height="35.72208099759473" rx="1" fill="#9360ef"/><rect x="850" y="819" width="10" height="181" fill="url(#vol)"/><path d="M872 251.54139520775004V317.54139520775004" stroke="#9360ef" stroke-width="1.4"/><rect x="867" y="280.54139520775004" width="10" height="10" rx="1" fill="#9360ef"/><rect x="867" y="852" width="10" height="148" fill="url(#vol)"/><path d="M889 255.15292751913478V306.1529275191348" stroke="#9360ef" stroke-width="1.4"/><rect x="884" y="273.1529275191348" width="10" height="10" rx="1" fill="#9360ef"/><rect x="884" y="878" width="10" height="122" fill="url(#vol)"/><path d="M906 247.15292751913478V319.9065902946204" stroke="#485b80" stroke-width="1.4"/><rect x="901" y="273.1529275191348" width="10" height="16.753662775485623" rx="1" fill="#485b80"/><rect x="901" y="880" width="10" height="120" fill="url(#vol)"/><path d="M923 238.9065902946204V357.77213948397207" stroke="#485b80" stroke-width="1.4"/><rect x="918" y="289.9065902946204" width="10" height="12.865549189351668" rx="1" fill="#485b80"/><rect x="918" y="831" width="10" height="169" fill="url(#vol)"/><path d="M940 270.7093038067868V356.7093038067868" stroke="#9360ef" stroke-width="1.4"/><rect x="935" y="299.7093038067868" width="10" height="10" rx="1" fill="#9360ef"/><rect x="935" y="925" width="10" height="75" fill="url(#vol)"/><path d="M957 254.7093038067868V339.7093038067868" stroke="#485b80" stroke-width="1.4"/><rect x="952" y="299.7093038067868" width="10" height="10" rx="1" fill="#485b80"/><rect x="952" y="927" width="10" height="73" fill="url(#vol)"/><path d="M974 271.589522783141V342.589522783141" stroke="#9360ef" stroke-width="1.4"/><rect x="969" y="299.589522783141" width="10" height="10" rx="1" fill="#9360ef"/><rect x="969" y="918" width="10" height="82" fill="url(#vol)"/><path d="M991 251.4055990018922V362.4055990018922" stroke="#9360ef" stroke-width="1.4"/><rect x="986" y="297.4055990018922" width="10" height="10" rx="1" fill="#9360ef"/><rect x="986" y="872" width="10" height="128" fill="url(#vol)"/><path d="M1008 264.4055990018922V372.04047860329104" stroke="#485b80" stroke-width="1.4"/><rect x="1003" y="297.4055990018922" width="10" height="37.634879601398836" rx="1" fill="#485b80"/><rect x="1003" y="806" width="10" height="194" fill="url(#vol)"/><path d="M1025 253.4108794623071V374.04047860329104" stroke="#9360ef" stroke-width="1.4"/><rect x="1020" y="292.4108794623071" width="10" height="42.62959914098394" rx="1" fill="#9360ef"/><rect x="1020" y="905" width="10" height="95" fill="url(#vol)"/><path d="M1042 260.4108794623071V347.42688636544744" stroke="#485b80" stroke-width="1.4"/><rect x="1037" y="292.4108794623071" width="10" height="19.01600690314035" rx="1" fill="#485b80"/><rect x="1037" y="801" width="10" height="199" fill="url(#vol)"/><path d="M1059 280.42688636544744V380.9927618854373" stroke="#485b80" stroke-width="1.4"/><rect x="1054" y="311.42688636544744" width="10" height="46.565875519989845" rx="1" fill="#485b80"/><rect x="1054" y="857" width="10" height="143" fill="url(#vol)"/><path d="M1076 292.00780976187457V381.9927618854373" stroke="#9360ef" stroke-width="1.4"/><rect x="1071" y="328.00780976187457" width="10" height="29.98495212356272" rx="1" fill="#9360ef"/><rect x="1071" y="814" width="10" height="186" fill="url(#vol)"/><path d="M1093 292.00780976187457V400.3672830017033" stroke="#485b80" stroke-width="1.4"/><rect x="1088" y="328.00780976187457" width="10" height="39.35947323982873" rx="1" fill="#485b80"/><rect x="1088" y="882" width="10" height="118" fill="url(#vol)"/><path d="M1110 310.96332851006514V403.3672830017033" stroke="#9360ef" stroke-width="1.4"/><rect x="1105" y="343.96332851006514" width="10" height="23.40395449163816" rx="1" fill="#9360ef"/><rect x="1105" y="916" width="10" height="84" fill="url(#vol)"/><path d="M1127 293.96332851006514V375.96332851006514" stroke="#485b80" stroke-width="1.4"/><rect x="1122" y="343.96332851006514" width="10" height="10" rx="1" fill="#485b80"/><rect x="1122" y="809" width="10" height="191" fill="url(#vol)"/><path d="M1144 303.68595973264223V456.4240485379938" stroke="#485b80" stroke-width="1.4"/><rect x="1139" y="352.68595973264223" width="10" height="62.738088805351595" rx="1" fill="#485b80"/><rect x="1139" y="937" width="10" height="63" fill="url(#vol)"/><path d="M1161 345.0663273948829V445.4240485379938" stroke="#9360ef" stroke-width="1.4"/><rect x="1156" y="393.0663273948829" width="10" height="22.35772114311095" rx="1" fill="#9360ef"/><rect x="1156" y="810" width="10" height="190" fill="url(#vol)"/><path d="M1178 343.0663273948829V444.0663273948829" stroke="#485b80" stroke-width="1.4"/><rect x="1173" y="393.0663273948829" width="10" height="10" rx="1" fill="#485b80"/><rect x="1173" y="960" width="10" height="40" fill="url(#vol)"/><path d="M1195 343.623700954064V437.623700954064" stroke="#9360ef" stroke-width="1.4"/><rect x="1190" y="395.623700954064" width="10" height="10" rx="1" fill="#9360ef"/><rect x="1190" y="926" width="10" height="74" fill="url(#vol)"/><path d="M1212 342.623700954064V465.32454656589186" stroke="#485b80" stroke-width="1.4"/><rect x="1207" y="395.623700954064" width="10" height="27.700845611827845" rx="1" fill="#485b80"/><rect x="1207" y="961" width="10" height="39" fill="url(#vol)"/><path d="M1229 374.32454656589186V490.50301619258096" stroke="#485b80" stroke-width="1.4"/><rect x="1224" y="423.32454656589186" width="10" height="19.178469626689093" rx="1" fill="#485b80"/><rect x="1224" y="951" width="10" height="49" fill="url(#vol)"/><path d="M1246 405.50301619258096V473.50301619258096" stroke="#485b80" stroke-width="1.4"/><rect x="1241" y="442.50301619258096" width="10" height="10" rx="1" fill="#485b80"/><rect x="1241" y="914" width="10" height="86" fill="url(#vol)"/><path d="M1263 392.90960477882595V472.90960477882595" stroke="#9360ef" stroke-width="1.4"/><rect x="1258" y="438.90960477882595" width="10" height="10" rx="1" fill="#9360ef"/><rect x="1258" y="843" width="10" height="157" fill="url(#vol)"/><path d="M1280 391.90960477882595V482.9609073171034" stroke="#485b80" stroke-width="1.4"/><rect x="1275" y="438.90960477882595" width="10" height="29.05130253827747" rx="1" fill="#485b80"/><rect x="1275" y="835" width="10" height="165" fill="url(#vol)"/><path d="M1297 450.9609073171034V502.9609073171034" stroke="#485b80" stroke-width="1.4"/><rect x="1292" y="467.9609073171034" width="10" height="10" rx="1" fill="#485b80"/><rect x="1292" y="914" width="10" height="86" fill="url(#vol)"/><path d="M1314 441.1377955960977V507.1377955960977" stroke="#485b80" stroke-width="1.4"/><rect x="1309" y="473.1377955960977" width="10" height="10" rx="1" fill="#485b80"/><rect x="1309" y="928" width="10" height="72" fill="url(#vol)"/><path d="M1331 449.37013596924805V540.596312925604" stroke="#485b80" stroke-width="1.4"/><rect x="1326" y="478.37013596924805" width="10" height="15.226176956355914" rx="1" fill="#485b80"/><rect x="1326" y="903" width="10" height="97" fill="url(#vol)"/><path d="M1348 409.7637847517193V520.596312925604" stroke="#9360ef" stroke-width="1.4"/><rect x="1343" y="453.7637847517193" width="10" height="39.83252817388467" rx="1" fill="#9360ef"/><rect x="1343" y="928" width="10" height="72" fill="url(#vol)"/><path d="M1365 415.7637847517193V526.8295573640933" stroke="#485b80" stroke-width="1.4"/><rect x="1360" y="453.7637847517193" width="10" height="23.065772612373962" rx="1" fill="#485b80"/><rect x="1360" y="852" width="10" height="148" fill="url(#vol)"/><path d="M1382 413.7605720390378V515.8295573640933" stroke="#9360ef" stroke-width="1.4"/><rect x="1377" y="446.7605720390378" width="10" height="30.06898532505545" rx="1" fill="#9360ef"/><rect x="1377" y="825" width="10" height="175" fill="url(#vol)"/><path d="M1399 391.7605720390378V509.53400354333803" stroke="#485b80" stroke-width="1.4"/><rect x="1394" y="446.7605720390378" width="10" height="24.77343150430022" rx="1" fill="#485b80"/><rect x="1394" y="899" width="10" height="101" fill="url(#vol)"/><path d="M1416 429.53400354333803V522.1374659771018" stroke="#485b80" stroke-width="1.4"/><rect x="1411" y="471.53400354333803" width="10" height="10.60346243376381" rx="1" fill="#485b80"/><rect x="1411" y="831" width="10" height="169" fill="url(#vol)"/><path d="M1433 445.56912447246077V522.1374659771018" stroke="#9360ef" stroke-width="1.4"/><rect x="1428" y="460.56912447246077" width="10" height="21.56834150464107" rx="1" fill="#9360ef"/><rect x="1428" y="948" width="10" height="52" fill="url(#vol)"/><path d="M1450 394.8377117408028V475.56912447246077" stroke="#9360ef" stroke-width="1.4"/><rect x="1445" y="439.8377117408028" width="10" height="20.731412731657997" rx="1" fill="#9360ef"/><rect x="1445" y="966" width="10" height="34" fill="url(#vol)"/><path d="M1467 382.96244931930755V476.96244931930755" stroke="#9360ef" stroke-width="1.4"/><rect x="1462" y="431.96244931930755" width="10" height="10" rx="1" fill="#9360ef"/><rect x="1462" y="926" width="10" height="74" fill="url(#vol)"/><path d="M1484 396.96244931930755V499.9728742270016" stroke="#485b80" stroke-width="1.4"/><rect x="1479" y="431.96244931930755" width="10" height="21.010424907694073" rx="1" fill="#485b80"/><rect x="1479" y="808" width="10" height="192" fill="url(#vol)"/><path d="M1501 420.90857259358546V493.9728742270016" stroke="#9360ef" stroke-width="1.4"/><rect x="1496" y="441.90857259358546" width="10" height="11.064301633416164" rx="1" fill="#9360ef"/><rect x="1496" y="830" width="10" height="170" fill="url(#vol)"/><path d="M1518 385.8188226632243V457.90857259358546" stroke="#9360ef" stroke-width="1.4"/><rect x="1513" y="408.8188226632243" width="10" height="33.089749930361165" rx="1" fill="#9360ef"/><rect x="1513" y="802" width="10" height="198" fill="url(#vol)"/><path d="M1535 350.7621503927734V433.8188226632243" stroke="#9360ef" stroke-width="1.4"/><rect x="1530" y="397.7621503927734" width="10" height="11.056672270450917" rx="1" fill="#9360ef"/><rect x="1530" y="926" width="10" height="74" fill="url(#vol)"/><path d="M1552 346.8058016521459V446.8058016521459" stroke="#9360ef" stroke-width="1.4"/><rect x="1547" y="389.8058016521459" width="10" height="10" rx="1" fill="#9360ef"/><rect x="1547" y="935" width="10" height="65" fill="url(#vol)"/><path d="M1569 354.02513578663354V412.02513578663354" stroke="#9360ef" stroke-width="1.4"/><rect x="1564" y="380.02513578663354" width="10" height="10" rx="1" fill="#9360ef"/><rect x="1564" y="936" width="10" height="64" fill="url(#vol)"/><path d="M1586 351.02513578663354V419.5029460101684" stroke="#485b80" stroke-width="1.4"/><rect x="1581" y="380.02513578663354" width="10" height="14.477810223534846" rx="1" fill="#485b80"/><rect x="1581" y="909" width="10" height="91" fill="url(#vol)"/><path d="M1603 333.3287127583603V415.5029460101684" stroke="#9360ef" stroke-width="1.4"/><rect x="1598" y="372.3287127583603" width="10" height="22.17423325180806" rx="1" fill="#9360ef"/><rect x="1598" y="836" width="10" height="164" fill="url(#vol)"/><path d="M1620 310.59779673473577V408.59779673473577" stroke="#9360ef" stroke-width="1.4"/><rect x="1615" y="364.59779673473577" width="10" height="10" rx="1" fill="#9360ef"/><rect x="1615" y="931" width="10" height="69" fill="url(#vol)"/><path d="M1637 333.41057892746085V414.59779673473577" stroke="#9360ef" stroke-width="1.4"/><rect x="1632" y="352.41057892746085" width="10" height="12.18721780727492" rx="1" fill="#9360ef"/><rect x="1632" y="841" width="10" height="159" fill="url(#vol)"/><path d="M1654 292.8715553520582V367.41057892746085" stroke="#9360ef" stroke-width="1.4"/><rect x="1649" y="332.8715553520582" width="10" height="19.539023575402666" rx="1" fill="#9360ef"/><rect x="1649" y="856" width="10" height="144" fill="url(#vol)"/><path d="M1671 285.08839468392597V375.08839468392597" stroke="#9360ef" stroke-width="1.4"/><rect x="1666" y="329.08839468392597" width="10" height="10" rx="1" fill="#9360ef"/><rect x="1666" y="815" width="10" height="185" fill="url(#vol)"/><path d="M1688 235.1709672791298V368.08839468392597" stroke="#9360ef" stroke-width="1.4"/><rect x="1683" y="284.1709672791298" width="10" height="44.91742740479617" rx="1" fill="#9360ef"/><rect x="1683" y="915" width="10" height="85" fill="url(#vol)"/></svg>